<svg xmlns="http://www.w3.org/2000/svg" xmlns:xlink="http://www.w3.org/1999/xlink" width="100" zoomAndPan="magnify" viewBox="0 0 75 74.999997" height="100" preserveAspectRatio="xMidYMid meet" version="1.0"><defs><g/><clipPath id="4c60cc716e"><path d="M 37.5 0 C 16.789062 0 0 16.789062 0 37.5 C 0 58.210938 16.789062 75 37.5 75 C 58.210938 75 75 58.210938 75 37.5 C 75 16.789062 58.210938 0 37.5 0 Z M 37.5 0 " clip-rule="nonzero"/></clipPath></defs><g clip-path="url(#4c60cc716e)"><rect x="-7.5" width="90" fill="#cc6a46" y="-7.5" height="89.999996" fill-opacity="1"/></g><g fill="#ffffff" fill-opacity="1"><g transform="translate(12.761719, 50.999995)"><g><path d="M 14.234375 -26.875 L 3.6875 -26.875 L 3.6875 -26.234375 L 7.359375 -26.234375 L 7.359375 -0.71875 C 7.359375 0.71875 7.15625 1.75 6.75 2.375 C 6.351562 3 5.648438 3.3125 4.640625 3.3125 C 4.109375 3.3125 3.613281 3.210938 3.15625 3.015625 C 2.707031 2.816406 2.347656 2.546875 2.078125 2.203125 C 2.722656 2.203125 3.203125 2.007812 3.515625 1.625 C 3.835938 1.238281 4 0.75 4 0.15625 C 4 -0.289062 3.851562 -0.691406 3.5625 -1.046875 C 3.269531 -1.410156 2.84375 -1.59375 2.28125 -1.59375 C 1.664062 -1.59375 1.210938 -1.398438 0.921875 -1.015625 C 0.628906 -0.628906 0.484375 -0.128906 0.484375 0.484375 C 0.484375 0.859375 0.578125 1.25 0.765625 1.65625 C 0.953125 2.070312 1.226562 2.453125 1.59375 2.796875 C 1.96875 3.140625 2.425781 3.429688 2.96875 3.671875 C 3.519531 3.921875 4.15625 4.046875 4.875 4.046875 C 9.113281 4.046875 11.234375 1.953125 11.234375 -2.234375 L 11.234375 -26.234375 L 14.234375 -26.234375 Z M 14.234375 -26.875 "/></g></g></g><g fill="#ffffff" fill-opacity="1"><g transform="translate(38.319178, 50.999995)"><g><path d="M 21 -20.640625 C 21 -21.628906 20.769531 -22.515625 20.3125 -23.296875 C 19.863281 -24.085938 19.257812 -24.742188 18.5 -25.265625 C 17.738281 -25.785156 16.863281 -26.179688 15.875 -26.453125 C 14.894531 -26.734375 13.867188 -26.875 12.796875 -26.875 L 1.15625 -26.875 L 1.15625 -26.234375 L 4.59375 -26.234375 L 4.59375 -0.640625 L 1.15625 -0.640625 L 1.15625 0 L 13.125 0 C 15.894531 0 18.046875 -0.640625 19.578125 -1.921875 C 21.109375 -3.203125 21.875 -4.972656 21.875 -7.234375 C 21.875 -8.410156 21.640625 -9.4375 21.171875 -10.3125 C 20.710938 -11.195312 20.132812 -11.945312 19.4375 -12.5625 C 18.75 -13.175781 17.984375 -13.648438 17.140625 -13.984375 C 16.296875 -14.316406 15.515625 -14.519531 14.796875 -14.59375 C 15.679688 -14.757812 16.503906 -14.992188 17.265625 -15.296875 C 18.023438 -15.609375 18.675781 -16.007812 19.21875 -16.5 C 19.769531 -16.988281 20.203125 -17.570312 20.515625 -18.25 C 20.835938 -18.9375 21 -19.734375 21 -20.640625 Z M 8.484375 -14.84375 L 8.484375 -26.234375 L 12.796875 -26.234375 C 13.460938 -26.234375 14.0625 -26.144531 14.59375 -25.96875 C 15.132812 -25.800781 15.585938 -25.507812 15.953125 -25.09375 C 16.328125 -24.6875 16.617188 -24.140625 16.828125 -23.453125 C 17.046875 -22.773438 17.15625 -21.941406 17.15625 -20.953125 L 17.15625 -20.3125 C 17.15625 -19.25 17.046875 -18.363281 16.828125 -17.65625 C 16.617188 -16.945312 16.328125 -16.382812 15.953125 -15.96875 C 15.585938 -15.5625 15.128906 -15.269531 14.578125 -15.09375 C 14.035156 -14.925781 13.441406 -14.84375 12.796875 -14.84375 Z M 8.484375 -0.640625 L 8.484375 -14.203125 L 12.796875 -14.203125 C 14.640625 -14.203125 15.953125 -13.640625 16.734375 -12.515625 C 17.523438 -11.398438 17.921875 -9.800781 17.921875 -7.71875 L 17.921875 -6.765625 C 17.921875 -4.816406 17.546875 -3.304688 16.796875 -2.234375 C 16.054688 -1.171875 14.722656 -0.640625 12.796875 -0.640625 Z M 8.484375 -0.640625 "/></g></g></g></svg>